{
	"asset":{
		"generator":"Khronos glTF Blender I/O v3.5.30",
		"version":"2.0"
	},
	"extensionsUsed":[
		"KHR_materials_specular",
		"KHR_materials_ior"
	],
	"scene":0,
	"scenes":[
		{
			"name":"Scene",
			"nodes":[
				0
			]
		}
	],
	"nodes":[
		{
			"mesh":0,
			"name":"10 Forest",
			"translation":[
				9,
				0,
				0
			]
		}
	],
	"materials":[
		{
			"doubleSided":true,
			"extensions":{
				"KHR_materials_specular":{
					"specularColorFactor":[
						0.538944893098873,
						0.538944893098873,
						0.538944893098873
					]
				},
				"KHR_materials_ior":{
					"ior":1.4500000476837158
				}
			},
			"name":"ForestFloor",
			"normalTexture":{
				"index":0
			},
			"pbrMetallicRoughness":{
				"baseColorTexture":{
					"index":1
				},
				"metallicFactor":0,
				"roughnessFactor":0.8454545736312866
			}
		},
		{
			"doubleSided":true,
			"name":"ForestWood",
			"normalTexture":{
				"index":2
			},
			"pbrMetallicRoughness":{
				"baseColorTexture":{
					"index":3
				},
				"metallicFactor":0
			}
		}
	],
	"meshes":[
		{
			"name":"Cylinder.015",
			"primitives":[
				{
					"attributes":{
						"POSITION":0,
						"TEXCOORD_0":1,
						"NORMAL":2
					},
					"indices":3,
					"material":0
				},
				{
					"attributes":{
						"POSITION":4,
						"TEXCOORD_0":5,
						"NORMAL":6
					},
					"indices":7,
					"material":1
				},
				{
					"attributes":{
						"POSITION":8,
						"TEXCOORD_0":9,
						"NORMAL":10
					},
					"indices":11,
					"material":1
				}
			]
		}
	],
	"textures":[
		{
			"sampler":0,
			"source":0
		},
		{
			"sampler":0,
			"source":1
		},
		{
			"sampler":0,
			"source":0
		},
		{
			"sampler":0,
			"source":1
		}
	],
	"images":[
		{
			"mimeType":"image/png",
			"name":"ForestNormal",
			"uri":"ForestNormal.png"
		},
		{
			"mimeType":"image/png",
			"name":"ForestTexture",
			"uri":"ForestTexture.png"
		}
	],
	"accessors":[
		{
			"bufferView":0,
			"componentType":5126,
			"count":54,
			"max":[
				0.866025447845459,
				0.2549999952316284,
				1
			],
			"min":[
				-0.866025447845459,
				-0.05000000074505806,
				-1
			],
			"type":"VEC3"
		},
		{
			"bufferView":1,
			"componentType":5126,
			"count":54,
			"type":"VEC2"
		},
		{
			"bufferView":2,
			"componentType":5126,
			"count":54,
			"type":"VEC3"
		},
		{
			"bufferView":3,
			"componentType":5123,
			"count":96,
			"type":"SCALAR"
		},
		{
			"bufferView":4,
			"componentType":5126,
			"count":54,
			"max":[
				0.711769163608551,
				1.024999976158142,
				0.7037668228149414
			],
			"min":[
				-0.6987266540527344,
				0.1518317461013794,
				-0.5341107249259949
			],
			"type":"VEC3"
		},
		{
			"bufferView":5,
			"componentType":5126,
			"count":54,
			"type":"VEC2"
		},
		{
			"bufferView":6,
			"componentType":5126,
			"count":54,
			"type":"VEC3"
		},
		{
			"bufferView":7,
			"componentType":5123,
			"count":54,
			"type":"SCALAR"
		},
		{
			"bufferView":8,
			"componentType":5126,
			"count":96,
			"max":[
				0.4692820906639099,
				0.2970000207424164,
				0.4752815067768097
			],
			"min":[
				-0.5106626749038696,
				0.0395410880446434,
				-0.31695300340652466
			],
			"type":"VEC3"
		},
		{
			"bufferView":9,
			"componentType":5126,
			"count":96,
			"type":"VEC2"
		},
		{
			"bufferView":10,
			"componentType":5126,
			"count":96,
			"type":"VEC3"
		},
		{
			"bufferView":11,
			"componentType":5123,
			"count":156,
			"type":"SCALAR"
		}
	],
	"bufferViews":[
		{
			"buffer":0,
			"byteLength":648,
			"byteOffset":0,
			"target":34962
		},
		{
			"buffer":0,
			"byteLength":432,
			"byteOffset":648,
			"target":34962
		},
		{
			"buffer":0,
			"byteLength":648,
			"byteOffset":1080,
			"target":34962
		},
		{
			"buffer":0,
			"byteLength":192,
			"byteOffset":1728,
			"target":34963
		},
		{
			"buffer":0,
			"byteLength":648,
			"byteOffset":1920,
			"target":34962
		},
		{
			"buffer":0,
			"byteLength":432,
			"byteOffset":2568,
			"target":34962
		},
		{
			"buffer":0,
			"byteLength":648,
			"byteOffset":3000,
			"target":34962
		},
		{
			"buffer":0,
			"byteLength":108,
			"byteOffset":3648,
			"target":34963
		},
		{
			"buffer":0,
			"byteLength":1152,
			"byteOffset":3756,
			"target":34962
		},
		{
			"buffer":0,
			"byteLength":768,
			"byteOffset":4908,
			"target":34962
		},
		{
			"buffer":0,
			"byteLength":1152,
			"byteOffset":5676,
			"target":34962
		},
		{
			"buffer":0,
			"byteLength":312,
			"byteOffset":6828,
			"target":34963
		}
	],
	"samplers":[
		{
			"magFilter":9729,
			"minFilter":9987
		}
	],
	"buffers":[
		{
			"byteLength":7140,
			"uri":"Forest.bin"
		}
	]
}
