{
	"asset":{
		"generator":"Khronos glTF Blender I/O v3.5.30",
		"version":"2.0"
	},
	"scene":0,
	"scenes":[
		{
			"name":"Scene",
			"nodes":[
				0
			]
		}
	],
	"nodes":[
		{
			"mesh":0,
			"name":"Hills",
			"translation":[
				-3,
				0,
				0
			]
		}
	],
	"materials":[
		{
			"doubleSided":true,
			"name":"Hills",
			"normalTexture":{
				"index":0,
				"scale":6.899999618530273
			},
			"pbrMetallicRoughness":{
				"baseColorTexture":{
					"index":1
				},
				"metallicFactor":0
			}
		}
	],
	"meshes":[
		{
			"name":"Cylinder.009",
			"primitives":[
				{
					"attributes":{
						"POSITION":0,
						"TEXCOORD_0":1,
						"NORMAL":2
					},
					"indices":3,
					"material":0
				}
			]
		}
	],
	"textures":[
		{
			"sampler":0,
			"source":0
		},
		{
			"sampler":0,
			"source":1
		}
	],
	"images":[
		{
			"mimeType":"image/png",
			"name":"HillsNormal",
			"uri":"HillsNormal.png"
		},
		{
			"mimeType":"image/png",
			"name":"HillsTexture",
			"uri":"HillsTexture.png"
		}
	],
	"accessors":[
		{
			"bufferView":0,
			"componentType":5126,
			"count":144,
			"max":[
				0.866025447845459,
				0.39000004529953003,
				1
			],
			"min":[
				-0.866025447845459,
				-0.05000000074505806,
				-1
			],
			"type":"VEC3"
		},
		{
			"bufferView":1,
			"componentType":5126,
			"count":144,
			"type":"VEC2"
		},
		{
			"bufferView":2,
			"componentType":5126,
			"count":144,
			"type":"VEC3"
		},
		{
			"bufferView":3,
			"componentType":5123,
			"count":240,
			"type":"SCALAR"
		}
	],
	"bufferViews":[
		{
			"buffer":0,
			"byteLength":1728,
			"byteOffset":0,
			"target":34962
		},
		{
			"buffer":0,
			"byteLength":1152,
			"byteOffset":1728,
			"target":34962
		},
		{
			"buffer":0,
			"byteLength":1728,
			"byteOffset":2880,
			"target":34962
		},
		{
			"buffer":0,
			"byteLength":480,
			"byteOffset":4608,
			"target":34963
		}
	],
	"samplers":[
		{
			"magFilter":9729,
			"minFilter":9987
		}
	],
	"buffers":[
		{
			"byteLength":5088,
			"uri":"Hills.bin"
		}
	]
}
